<?xml version="1.0" encoding="UTF-8" standalone="no"?>
<!DOCTYPE svg PUBLIC "-//W3C//DTD SVG 1.1//EN" "http://www.w3.org/Graphics/SVG/1.1/DTD/svg11.dtd">
<svg xmlns:dc="http://purl.org/dc/elements/1.1/" version="1.1" xmlns:xl="http://www.w3.org/1999/xlink" xmlns="http://www.w3.org/2000/svg" viewBox="500 225 200 200" width="200" height="200">
  <defs/>
  <metadata> Produced by OmniGraffle 7.18.3\n2021-03-09 08:28:39 +0000</metadata>
  <g id="social-media" stroke-dasharray="none" fill="none" fill-opacity="1" stroke-opacity="1" stroke="none">
    <title>social-media</title>
    <g id="social-media_inner-ring">
      <title>inner-ring</title>
      <g id="Graphic_15">
        <path d="M 600 325 L 600 225 C 608.7391 225 617.44055 226.14556 625.8819 228.40742 L 600 325 Z" fill="#00a2ea"/>
      </g>
      <g id="Graphic_26">
        <path d="M 600 325 L 650 238.39746 C 665.2019 247.1743 677.8257 259.79808 686.6025 275 L 600 325 Z" fill="#00a2ea"/>
      </g>
      <g id="Graphic_27">
        <path d="M 600 325 L 700 325 C 700 333.73913 698.8544 342.44055 696.5926 350.8819 L 600 325 Z" fill="#00a2ea"/>
      </g>
      <g id="Graphic_28">
        <path d="M 600 325 L 686.6025 375 C 668.7393 405.9401 635.72656 425 600 425 L 600 325 Z" fill="#00a2ea"/>
      </g>
      <g id="Graphic_29">
        <path d="M 600 325 L 574.1181 421.5926 C 565.67675 419.33073 557.5683 415.9721 550 411.60254 L 600 325 Z" fill="#00a2ea"/>
      </g>
      <g id="Graphic_30">
        <path d="M 600 325 L 513.39746 375 C 504.6206 359.7981 500 342.55367 500 325 L 600 325 Z" fill="#00a2ea"/>
      </g>
      <g id="Graphic_31">
        <path d="M 600 325 L 503.4074 299.1181 C 505.6693 290.67675 509.0279 282.5683 513.39746 275 L 600 325 Z" fill="#00a2ea"/>
      </g>
      <g id="Graphic_50">
        <path d="M 600 325 L 529.2893 254.28932 C 541.70164 241.877 557.16256 232.95064 574.1181 228.40742 L 600 325 Z" fill="#00a2ea"/>
      </g>
    </g>
  </g>
</svg>
