<?xml version="1.0" encoding="UTF-8" standalone="no"?>
<!DOCTYPE svg PUBLIC "-//W3C//DTD SVG 1.1//EN" "http://www.w3.org/Graphics/SVG/1.1/DTD/svg11.dtd">
<svg xmlns:dc="http://purl.org/dc/elements/1.1/" version="1.1" xmlns:xl="http://www.w3.org/1999/xlink" xmlns="http://www.w3.org/2000/svg" viewBox="425 150 350 350" width="350" height="350">
  <defs/>
  <metadata> Produced by OmniGraffle 7.18.3\n2021-03-09 08:28:39 +0000</metadata>
  <g id="social-media" stroke-dasharray="none" fill="none" fill-opacity="1" stroke-opacity="1" stroke="none">
    <title>social-media</title>
    <g id="social-media_lower-middle-ring">
      <title>lower-middle-ring</title>
      <g id="Graphic_16">
        <title>Adjustable Wedge</title>
        <path d="M 600 325 L 645.2933 155.96298 C 660.0657 159.92122 674.2555 165.79882 687.5 173.44555 L 600 325 Z" fill="#81d1f4"/>
      </g>
      <g id="Graphic_32">
        <path d="M 600 325 L 723.7437 201.25631 C 734.5578 212.07043 743.9077 224.25546 751.55445 237.5 L 600 325 Z" fill="#81d1f4"/>
      </g>
      <g id="Graphic_35">
        <path d="M 600 325 L 512.5 476.55445 C 499.25546 468.9077 487.07043 459.5578 476.2563 448.7437 L 600 325 Z" fill="#81d1f4"/>
      </g>
      <g id="Graphic_36">
        <path d="M 600 325 L 448.44555 412.5 C 440.7988 399.25546 434.9212 385.0657 430.963 370.29333 L 600 325 Z" fill="#81d1f4"/>
      </g>
      <g id="Graphic_37">
        <path d="M 600 325 L 448.44555 237.5 C 456.0923 224.25546 465.4422 212.07043 476.2563 201.25631 L 600 325 Z" fill="#81d1f4"/>
      </g>
      <g id="Graphic_51">
        <path d="M 600 325 L 554.7067 155.96298 C 562.5772 153.85408 570.5854 152.29744 578.67286 151.30442 L 600 325 Z" fill="#81d1f4"/>
      </g>
      <g id="Graphic_59">
        <path d="M 600 325 L 751.55445 412.5 C 743.9077 425.74454 734.5578 437.92957 723.7437 448.7437 L 600 325 Z" fill="#81d1f4"/>
      </g>
      <g id="Graphic_62">
        <path d="M 600 325 L 600 500 C 584.7065 500 569.479 497.99526 554.7067 494.037 L 600 325 Z" fill="#81d1f4"/>
      </g>
    </g>
    <g id="social-media_upper-middle-ring">
      <title>upper-middle-ring</title>
      <g id="Graphic_33">
        <path d="M 600 325 L 769.037 370.29333 C 765.0788 385.0657 759.2012 399.25546 751.55445 412.5 L 600 325 Z" fill="#67c7f1"/>
      </g>
      <g id="Graphic_34">
        <path d="M 600 325 L 687.5 476.55445 C 660.8966 491.9139 630.7189 500 600 500 L 600 325 Z" fill="#67c7f1"/>
      </g>
      <g id="Graphic_57">
        <path d="M 600 325 L 476.2563 201.25631 C 487.07043 190.4422 499.25546 181.0923 512.5 173.44555 L 600 325 Z" fill="#67c7f1"/>
      </g>
      <g id="Graphic_58">
        <path d="M 600 325 L 425 325 C 425 294.2811 433.0861 264.10336 448.44555 237.5 L 600 325 Z" fill="#67c7f1"/>
      </g>
      <g id="Graphic_60">
        <path d="M 600 325 L 751.55445 237.5 C 759.2012 250.74454 765.0788 264.9343 769.037 279.70667 L 600 325 Z" fill="#67c7f1"/>
      </g>
      <g id="Graphic_61">
        <title>Adjustable Wedge</title>
        <path d="M 600 325 L 600 150 C 615.2935 150 630.521 152.00474 645.2933 155.96298 L 600 325 Z" fill="#67c7f1"/>
      </g>
    </g>
  </g>
</svg>
