<?xml version="1.0" encoding="UTF-8" standalone="no"?>
<!DOCTYPE svg PUBLIC "-//W3C//DTD SVG 1.1//EN" "http://www.w3.org/Graphics/SVG/1.1/DTD/svg11.dtd">
<svg xmlns:dc="http://purl.org/dc/elements/1.1/" version="1.1" xmlns:xl="http://www.w3.org/1999/xlink" xmlns="http://www.w3.org/2000/svg" viewBox="325 50 550 550" width="550" height="550">
  <defs/>
  <metadata> Produced by OmniGraffle 7.18.3\n2021-03-09 08:28:39 +0000</metadata>
  <g id="social-media" stroke-dasharray="none" fill="none" fill-opacity="1" stroke-opacity="1" stroke="none">
    <title>social-media</title>
    <g id="social-media_outer-ring">
      <title>outer-ring</title>
      <g id="Graphic_17">
        <path d="M 600 325 L 600 50 C 624.0326 50 647.9615 53.1503 671.1752 59.3704 L 600 325 Z" fill="#ccecfb"/>
      </g>
      <g id="Graphic_38">
        <path d="M 600 325 L 737.5 86.84301 C 758.3128 98.85932 777.46075 113.55202 794.4544 130.54564 L 600 325 Z" fill="#ccecfb"/>
      </g>
      <g id="Graphic_39">
        <path d="M 600 325 L 838.157 187.5 C 862.2933 229.30528 875 276.72742 875 325 L 600 325 Z" fill="#ccecfb"/>
      </g>
      <g id="Graphic_40">
        <path d="M 600 325 L 865.6296 396.17524 C 859.4095 419.38895 850.1733 441.68716 838.157 462.5 L 600 325 Z" fill="#ccecfb"/>
      </g>
      <g id="Graphic_41">
        <path d="M 600 325 L 794.4544 519.45436 C 742.8819 571.0269 672.9345 600 600 600 L 600 325 Z" fill="#ccecfb"/>
      </g>
      <g id="Graphic_42">
        <path d="M 600 325 L 528.82476 590.6296 C 505.61105 584.4095 483.31284 575.1733 462.5 563.157 L 600 325 Z" fill="#ccecfb"/>
      </g>
      <g id="Graphic_43">
        <path d="M 600 325 L 405.54564 519.45436 C 388.552 502.46075 373.8593 483.31284 361.843 462.5 L 600 325 Z" fill="#ccecfb"/>
      </g>
      <g id="Graphic_44">
        <path d="M 600 325 L 325 325 C 325 276.72742 337.70672 229.30528 361.843 187.5 L 600 325 Z" fill="#ccecfb"/>
      </g>
      <g id="Graphic_45">
        <path d="M 600 325 L 405.54564 130.54564 C 439.6795 96.41176 482.197 71.86426 528.82476 59.3704 L 600 325 Z" fill="#ccecfb"/>
      </g>
    </g>
  </g>
</svg>
