<?xml version="1.0" encoding="UTF-8" standalone="no"?>
<!DOCTYPE svg PUBLIC "-//W3C//DTD SVG 1.1//EN" "http://www.w3.org/Graphics/SVG/1.1/DTD/svg11.dtd">
<svg xmlns:dc="http://purl.org/dc/elements/1.1/" version="1.1" xmlns:xl="http://www.w3.org/1999/xlink" xmlns="http://www.w3.org/2000/svg" viewBox="0 0 32 32" width="32" height="32">
  <defs/>
  <metadata> Produced by OmniGraffle 7.18.3\n2021-03-09 08:28:39 +0000</metadata>
  <g id="favicon" stroke-dasharray="none" fill="none" fill-opacity="1" stroke-opacity="1" stroke="none">
    <title>favicon</title>
    <g id="favicon_Layer_1">
      <title>Layer 1</title>
      <g id="Graphic_25">
        <path d="M 16 16 L 16 -10658141e-21 C 17.39826 -10658141e-21 18.790489 .18329032 20.141105 .5451868 L 16 16 Z" fill="#00a2ea"/>
      </g>
      <g id="Graphic_24">
        <path d="M 16 16 L 24 2.1435935 C 25.21093 2.8427238 26.32499 3.697572 27.31371 4.6862915 L 16 16 Z" fill="#00a2ea"/>
      </g>
      <g id="Graphic_23">
        <path d="M 16 16 L 29.856406 8 C 31.2607 10.432307 32 13.191413 32 16 L 16 16 Z" fill="#00a2ea"/>
      </g>
      <g id="Graphic_22">
        <path d="M 16 16 L 31.454813 20.141105 C 31.092917 21.49172 30.555537 22.78907 29.856406 24 L 16 16 Z" fill="#00a2ea"/>
      </g>
      <g id="Graphic_21">
        <path d="M 16 16 L 27.31371 27.31371 C 24.313126 30.31429 20.243464 32 16 32 L 16 16 Z" fill="#00a2ea"/>
      </g>
      <g id="Graphic_20">
        <path d="M 16 16 L 11.858895 31.454813 C 10.508279 31.092917 9.210929 30.555537 8 29.856406 L 16 16 Z" fill="#00a2ea"/>
      </g>
      <g id="Graphic_19">
        <path d="M 16 16 L 4.6862915 27.31371 C 3.697572 26.32499 2.8427238 25.21093 2.1435935 24 L 16 16 Z" fill="#00a2ea"/>
      </g>
      <g id="Graphic_18">
        <path d="M 16 16 L -10658141e-21 16 C -10658141e-21 13.191413 .7393002 10.432307 2.1435935 8 L 16 16 Z" fill="#00a2ea"/>
      </g>
      <g id="Graphic_17">
        <path d="M 16 16 L 4.6862915 4.6862915 C 6.672262 2.700321 9.146009 1.2721025 11.858895 .5451868 L 16 16 Z" fill="#00a2ea"/>
      </g>
    </g>
  </g>
</svg>
